<?xml version="1.0" encoding="UTF-8" standalone="no"?><!DOCTYPE svg PUBLIC "-//W3C//DTD SVG 1.1//EN" "http://www.w3.org/Graphics/SVG/1.1/DTD/svg11.dtd"><svg width="100%" height="100%" viewBox="0 0 75 70" version="1.1" xmlns="http://www.w3.org/2000/svg" xmlns:xlink="http://www.w3.org/1999/xlink" xml:space="preserve" xmlns:serif="http://www.serif.com/" style="fill-rule:evenodd;clip-rule:evenodd;stroke-linejoin:round;stroke-miterlimit:2;"><g id="checkmark"><path d="M5.357,34.824c-0,-0.001 -0,-0.003 -0,-0.004c-0,-16.163 13.3,-29.463 29.463,-29.463c5.171,-0 10.253,1.361 14.731,3.947c0.404,0.229 0.86,0.35 1.324,0.35c1.47,0 2.679,-1.209 2.679,-2.678c-0,-0.95 -0.505,-1.831 -1.324,-2.311c-5.293,-3.056 -11.298,-4.665 -17.41,-4.665c-19.102,-0 -34.82,15.718 -34.82,34.82c0,19.101 15.718,34.82 34.82,34.82c19.1,-0 34.817,-15.716 34.82,-34.816c-0,-1.469 -1.209,-2.678 -2.679,-2.678c-1.469,-0 -2.678,1.209 -2.678,2.678c-0,16.163 -13.3,29.463 -29.463,29.463c-16.163,0 -29.463,-13.3 -29.463,-29.463Z" style="fill:#ffc91c;fill-rule:nonzero;"/><path d="M74.215,9.936c0.502,-0.503 0.785,-1.185 0.785,-1.896c0,-1.471 -1.211,-2.682 -2.682,-2.682c-0.711,-0 -1.393,0.283 -1.896,0.785l-35.602,35.608l-14.175,-14.18c-0.502,-0.503 -1.185,-0.785 -1.896,-0.785c-1.471,-0 -2.682,1.21 -2.682,2.681c0,0.711 0.283,1.394 0.786,1.897l16.071,16.07c0.502,0.504 1.185,0.787 1.896,0.787c0.711,0 1.394,-0.283 1.896,-0.787l37.499,-37.498Z" style="fill:#353535;fill-opacity:0.85;fill-rule:nonzero;"/></g></svg>