<?xml version="1.0" encoding="UTF-8" standalone="no"?><!DOCTYPE svg PUBLIC "-//W3C//DTD SVG 1.1//EN" "http://www.w3.org/Graphics/SVG/1.1/DTD/svg11.dtd"><svg width="100%" height="100%" viewBox="0 0 63 52" version="1.1" xmlns="http://www.w3.org/2000/svg" xmlns:xlink="http://www.w3.org/1999/xlink" xml:space="preserve" xmlns:serif="http://www.serif.com/" style="fill-rule:evenodd;clip-rule:evenodd;stroke-linejoin:round;stroke-miterlimit:2;"><path d="M-0,48.295c-0,-1.558 1.282,-2.84 2.841,-2.84l56.818,-0c1.559,-0 2.841,1.282 2.841,2.84c-0,1.559 -1.282,2.841 -2.841,2.841l-56.818,0c-1.559,0 -2.841,-1.282 -2.841,-2.841Zm-0,-22.727c-0,-1.558 1.282,-2.841 2.841,-2.841l56.818,0c1.559,0 2.841,1.283 2.841,2.841c-0,1.559 -1.282,2.841 -2.841,2.841l-56.818,0c-1.559,0 -2.841,-1.282 -2.841,-2.841Zm-0,-22.727c-0,-1.559 1.282,-2.841 2.841,-2.841l56.818,-0c1.559,-0 2.841,1.282 2.841,2.841c-0,1.558 -1.282,2.841 -2.841,2.841l-56.818,-0c-1.559,-0 -2.841,-1.283 -2.841,-2.841Z" style="fill:#353535;"/></svg>