<?xml version="1.0" encoding="UTF-8" standalone="no"?><!DOCTYPE svg PUBLIC "-//W3C//DTD SVG 1.1//EN" "http://www.w3.org/Graphics/SVG/1.1/DTD/svg11.dtd"><svg width="100%" height="100%" viewBox="0 0 84 84" version="1.1" xmlns="http://www.w3.org/2000/svg" xmlns:xlink="http://www.w3.org/1999/xlink" xml:space="preserve" xmlns:serif="http://www.serif.com/" style="fill-rule:evenodd;clip-rule:evenodd;stroke-linejoin:round;stroke-miterlimit:2;"><path d="M41.667,-0c1.904,-0 3.472,1.567 3.472,3.472l-0,34.722l34.722,0c1.905,0 3.472,1.568 3.472,3.473c0,1.904 -1.567,3.472 -3.472,3.472l-34.722,-0l-0,34.722c-0,1.905 -1.568,3.472 -3.472,3.472c-1.905,0 -3.473,-1.567 -3.473,-3.472l0,-34.722l-34.722,-0c-1.905,-0 -3.472,-1.568 -3.472,-3.472c-0,-1.905 1.567,-3.473 3.472,-3.473l34.722,0l0,-34.722c0,-1.905 1.568,-3.472 3.473,-3.472Z" style="fill:#ffc91c;"/></svg>