<?xml version="1.0" encoding="UTF-8" standalone="no"?><!DOCTYPE svg PUBLIC "-//W3C//DTD SVG 1.1//EN" "http://www.w3.org/Graphics/SVG/1.1/DTD/svg11.dtd"><svg width="100%" height="100%" viewBox="0 0 30 30" version="1.1" xmlns="http://www.w3.org/2000/svg" xmlns:xlink="http://www.w3.org/1999/xlink" xml:space="preserve" xmlns:serif="http://www.serif.com/" style="fill-rule:evenodd;clip-rule:evenodd;stroke-linejoin:round;stroke-miterlimit:2;"><path d="M0.612,0.612c0.391,-0.392 0.922,-0.612 1.475,-0.612c0.553,0 1.084,0.22 1.475,0.612l11.025,11.029l11.025,-11.029c0.391,-0.391 0.922,-0.611 1.475,-0.611c1.144,0 2.086,0.942 2.086,2.086c0,0.553 -0.22,1.084 -0.611,1.475l-11.029,11.025l11.029,11.025c0.391,0.391 0.611,0.922 0.611,1.475c0,1.144 -0.942,2.086 -2.086,2.086c-0.553,0 -1.084,-0.22 -1.475,-0.611l-11.025,-11.029l-11.025,11.029c-0.391,0.391 -0.922,0.611 -1.475,0.611c-1.144,0 -2.086,-0.942 -2.086,-2.086c0,-0.553 0.22,-1.084 0.611,-1.475l11.029,-11.025l-11.029,-11.025c-0.392,-0.391 -0.612,-0.922 -0.612,-1.475c-0,-0.553 0.22,-1.084 0.612,-1.475Z" style="fill:#353535;fill-rule:nonzero;"/></svg>