<?xml version="1.0" encoding="UTF-8" standalone="no"?><!DOCTYPE svg PUBLIC "-//W3C//DTD SVG 1.1//EN" "http://www.w3.org/Graphics/SVG/1.1/DTD/svg11.dtd"><svg width="100%" height="100%" viewBox="0 0 364 62" version="1.1" xmlns="http://www.w3.org/2000/svg" xmlns:xlink="http://www.w3.org/1999/xlink" xml:space="preserve" xmlns:serif="http://www.serif.com/" style="fill-rule:evenodd;clip-rule:evenodd;stroke-linejoin:round;stroke-miterlimit:2;"><g><path d="M33.583,2.583l-24.333,0c-6.917,0 -9.25,3.834 -9.25,9.834l0,48.5l11,-0l0,-23.834l13.333,0c6.834,0 9,-5.5 9.25,-10.666l-22.583,-0l0,-12.917l22.583,-0l0,-10.917Z" style="fill:#353535;fill-rule:nonzero;"/><path d="M41.917,17.583l-0,43.334l10.833,-0l0,-17.5c0,-2.167 0,-4.917 0.167,-7.584c0.833,-9.416 11.75,-11.583 13.75,-6.083c4.833,-3.583 2.333,-13.75 -6.917,-13.167c-3.583,0.167 -6.667,2.667 -8.5,6.5l0,-5.5l-9.333,0Z" style="fill:#353535;fill-rule:nonzero;"/><path d="M106.833,44.25c17.584,-4.333 13.084,-27.667 -7.5,-27.667c-6.166,0 -12.5,1.834 -16.916,6.584c-12.167,12.75 -6.334,38.666 16,38.666c8,0 14.25,-2.75 18.75,-9.5l-8.75,-4.25c-3.417,3.5 -8.167,4.834 -12.417,4.084c-5.917,-1 -9.583,-7.25 -9.417,-13.5c0.167,-7.5 5.834,-12.834 12.167,-13.167c8.917,-0.5 14.25,9.667 3.667,10.583c-4.167,0.417 -9.167,0.667 -12.584,-2.25c-3.333,8.25 5,13.417 17,10.417Z" style="fill:#353535;fill-rule:nonzero;"/><path d="M146.333,31c6.417,-2.667 6.167,-13.583 -6.666,-14.25c-7.584,-0.333 -14.834,4.333 -14.834,12.25c0,7.75 6.917,11.333 14.084,14.917c11.25,5.583 -0.5,13.166 -9,3.25l-6.667,7.166c9.417,12.417 30.417,8.417 30.417,-5.916c-0,-12.25 -15,-14.25 -18,-17.667c-1.25,-1.417 -0.5,-3.333 1.5,-4c2.166,-0.833 7.5,0.083 9.166,4.25Z" style="fill:#353535;fill-rule:nonzero;"/><path d="M170.833,2.583c-6.416,-0.083 -10.5,3.167 -10.5,8.5l0,49.834l10.5,-0l0,-31.5c0.584,1.5 2.167,3.083 3.417,3.416c0,-3.25 2.167,-5.416 5.917,-5.416c2.833,-0 5.416,1.833 6.333,5.166c1.083,3.917 0.667,22.917 0.667,28.334l10.416,-0l0,-27.75c0,-4.834 -1.25,-8.5 -3.666,-11c-3.334,-3.417 -7.5,-4.667 -11.584,-4.417c-3.916,0.25 -9.75,2.083 -11.5,5.917l0,-21.084Z" style="fill:#353535;fill-rule:nonzero;"/><path d="M253.25,22.5c11.75,-13.917 -5.583,-20.917 -17.167,-20.75c-11,0.167 -20.916,3.667 -27.083,14.667c-9.667,17.25 -1.083,45.583 25.75,45.583c10.083,-0 16.583,-3.417 24.083,-11.083l-7.166,-7.75c-3.084,3.166 -5.834,5.333 -8.417,6.5c-11.5,5.416 -27.5,-1.25 -27.5,-18c-0,-8.834 5.5,-17 14.583,-18.917c8.5,-1.833 19.917,1.583 22.917,9.75Z" style="fill:#353535;fill-rule:nonzero;"/><path d="M266.333,17.583l0,43.334l10.834,-0l-0,-17.5c-0,-2.167 -0,-4.917 0.166,-7.584c0.834,-9.416 11.75,-11.583 13.75,-6.083c4.834,-3.583 2.334,-13.75 -6.916,-13.167c-3.584,0.167 -6.667,2.667 -8.5,6.5l-0,-5.5l-9.334,0Z" style="fill:#353535;fill-rule:nonzero;"/><clipPath id="_clip1"><rect x="-2.317" y="0.083" width="366.464" height="66.634"/></clipPath><g clip-path="url(#_clip1)"><path d="M299.583,26.5l0,34.417l10.75,-0l0,-43.167c-5.916,0.083 -10.333,2 -10.75,8.75Zm5.417,-26.5c-1.917,-0 -3.583,0.667 -4.917,2c-3.666,3.667 -1.583,12.167 -0.583,15.667c1.417,-3.75 7.417,-2.667 10.417,-5.667c1.333,-1.417 2,-3 2,-5c-0,-1.917 -0.667,-3.583 -2.084,-4.917c-1.333,-1.416 -2.916,-2.083 -4.833,-2.083Z" style="fill:#353535;fill-rule:nonzero;"/></g><path d="M330.75,60.917l0,-4.584c12.333,12.167 33.083,3.834 33.083,-16.5c0,-13.083 -9.916,-22.416 -20.583,-22.083c-11,0.417 -12.083,9.667 -10.167,13.167c1.834,-2.667 5.75,-3.417 8.75,-3.417c15.084,-0 15.417,24.833 0.084,24.833c-8.667,0 -11.167,-8.583 -11.167,-16.166l0,-33.584c-6.5,0.167 -10.5,4.084 -10.5,8.584l0,49.75l10.5,-0Z" style="fill:#353535;fill-rule:nonzero;"/></g></svg>